<?xml version="1.0" encoding="UTF-8"?>
<svg id="_レイヤー_1" data-name="レイヤー 1" xmlns="http://www.w3.org/2000/svg" viewBox="0 0 300 300">
  <defs>
    <style>
      .cls-1 {
        fill: #fff;
      }
    </style>
  </defs>
  <path class="cls-1" d="M247.78,158.3c-1.52-6.34-4.24-12.02-8.08-16.88-.33-.41-.81-.65-1.34-.65-.37,0-.88.11-1.23.65-2.82,4.44-6.36,8.38-10.52,11.69-4.28,3.4-9.01,6.03-14.04,7.79-3.44,1.21-7.11,2.01-11.25,2.41-.85,0-1.65-.33-2.34-1.03l-.97-1.46.4-2.64c.19-1.47,1.34-2.61,2.79-2.75,7.52-.84,14.61-3.77,20.51-8.47,5-3.98,9-9.17,11.59-14.97l.58-1.39c5.38-13.38,3.14-28.68-5.82-39.92-7.64-9.58-19.1-15.07-31.42-15.07-.46,0-.85.22-1.14.63-.29.4-.37.91-.22,1.35,1.71,4.99,2.57,10.21,2.57,15.53,0,8.84-2.48,17.53-7.17,25.11l-1.31,1.51h-1.39c-.88,0-1.7-.35-2.34-1.04l-.98-1.09c-1.01-1.05-1.19-2.64-.44-3.85,3.78-6.25,5.79-13.4,5.79-20.65,0-6.49-1.51-12.69-4.76-18.92l-.44-.78c-7.11-12.55-20.47-20.36-34.86-20.36-12.19,0-23.58,5.48-31.25,15.03-.32.4-.43.95-.28,1.46.13.48.44.82.89.98,4.94,1.77,9.55,4.35,13.71,7.65,6.82,5.43,12.02,12.67,15.05,20.94.33.91.23,1.91-.32,2.8l-1.17,1.32-3.01.31-2.37-.45-.6-1.6c-2.53-6.74-6.83-12.68-12.47-17.17-3.58-2.86-7.6-5.07-11.93-6.56-1.73-.6-3.48-1.06-5.18-1.39l-1.52-.27c-2.06-.33-4.18-.5-6.29-.5-12.3,0-23.72,5.5-31.36,15.07-7.58,9.5-10.41,21.79-7.75,33.7.14.67.68,1.2,1.75,1.2.17,0,.35-.02.55-.04,4.47-2.77,9.37-4.78,14.55-5.97,3.52-.79,7.09-1.19,10.62-1.19,5.3,0,10.53.88,15.52,2.6.96.31,1.71,1.07,2,1.95l.35,1.74-1.38,2.22c-.56,1-1.61,1.61-2.76,1.61l-.62-.03-.39-.13c-4.14-1.38-8.43-2.09-12.74-2.09-2.98,0-5.96.34-8.87,1-6.23,1.42-12.09,4.35-16.93,8.47l-1.1.97c-13.03,11.89-18.95,34.28-4.83,54.35,4.07,4.84,8.85,8.62,14.2,11.25.26.12.52.19.81.19.49,0,1.44-.27,1.56-1.26.63-5.21,2.12-10.3,4.43-15.1,4.01-8.33,10.29-15.27,18.13-20.04.51-.33,1.09-.5,1.71-.5l.71.04.44.18,1.46.85.89,2.46c.54,1.41,0,3.01-1.29,3.82-6.5,4.02-11.67,9.76-14.95,16.59-2.8,5.8-4.17,12.21-3.97,18.52l.06,1.49c.26,3.62.99,7.19,2.18,10.6,3.54,10.11,10.79,18.23,20.43,22.86,5.46,2.63,11.29,3.97,17.31,3.97s11.89-1.34,17.25-3.89c.52-.24.89-.72.99-1.28.08-.47-.05-.9-.36-1.22-3.69-3.75-6.72-8.07-9.03-12.86-3.15-6.53-4.74-13.5-4.74-20.72,0-2,.16-4.18.51-6.68l.56-1.56.91-.6c.49-.33,1.09-.5,1.71-.5l1.06.16,1.35.52c1.46.48,2.36,1.93,2.14,3.41-1.03,7.77.21,15.57,3.58,22.57,2.77,5.75,6.93,10.81,12.09,14.67.18.15.91.67,1.13.82,6.77,4.69,14.7,7.18,22.94,7.18,11.57,0,22.5-5.03,31.03-14.45,3.85-5.06,6.52-10.61,7.9-16.47.12-.53,0-1.09-.32-1.5-.28-.35-.68-.56-1.26-.56h-.05c-1.6.18-3.25.26-4.9.26-3.55,0-7.16-.41-10.75-1.22-9.26-2.11-17.57-6.83-24.05-13.66-.64-.68-.96-1.62-.84-2.66l.53-1.69,2.25-1.32c.51-.33,1.09-.5,1.7-.5l1.56.22.72.76c5.39,5.59,12.26,9.46,19.86,11.19,2.96.68,5.98,1.02,8.98,1.02,3.38,0,6.74-.43,10.04-1.29.22-.06,1.06-.29,1.36-.39,3.41-1.02,6.73-2.53,9.85-4.47,13.87-8.72,20.85-24.63,18.16-41.9ZM174.96,169.34h-49.92c-1.38,0-2.24-1.49-1.55-2.68l24.96-43.23c.69-1.19,2.41-1.19,3.1,0l24.96,43.23c.69,1.19-.17,2.68-1.55,2.68Z"/>
</svg>