<?xml version="1.0" encoding="UTF-8"?>
<svg id="_レイヤー_1" data-name="レイヤー 1" xmlns="http://www.w3.org/2000/svg" viewBox="0 0 700 300">
  <defs>
    <style>
      .cls-1 {
        fill: #fff;
      }
    </style>
  </defs>
  <g>
    <g>
      <path class="cls-1" d="M354.23,114.72c3.16,0,5.72-.35,7.69-1.04,3.74-1.33,5.6-3.81,5.6-7.43,0-2.11-.93-3.75-2.78-4.91-1.85-1.13-4.77-2.13-8.73-3l-6.78-1.52c-6.66-1.5-11.27-3.14-13.82-4.91-4.32-2.96-6.47-7.57-6.47-13.86,0-5.74,2.09-10.5,6.26-14.29,4.17-3.79,10.3-5.69,18.38-5.69,6.75,0,12.51,1.79,17.27,5.37,4.76,3.58,7.26,8.77,7.5,15.58h-12.86c-.23-3.85-1.91-6.59-5.04-8.21-2.09-1.07-4.68-1.61-7.78-1.61-3.45,0-6.2.69-8.26,2.08-2.06,1.39-3.08,3.33-3.08,5.82,0,2.29,1.01,4,3.04,5.13,1.3.75,4.08,1.64,8.34,2.65l11.04,2.65c4.84,1.16,8.49,2.71,10.95,4.65,3.82,3.01,5.74,7.37,5.74,13.08s-2.24,10.71-6.71,14.58c-4.48,3.87-10.8,5.8-18.97,5.8s-14.9-1.9-19.68-5.71c-4.78-3.81-7.17-9.04-7.17-15.71h12.77c.41,2.93,1.2,5.11,2.39,6.56,2.17,2.64,5.89,3.95,11.17,3.95Z"/>
      <path class="cls-1" d="M432.14,96.17v27.81h-12.64v-28.81c0-2.55-.43-4.61-1.3-6.17-1.13-2.2-3.27-3.3-6.43-3.3s-5.76,1.09-7.45,3.28c-1.69,2.19-2.54,5.31-2.54,9.36v25.63h-12.34v-63.83h12.34v22.64c1.8-2.75,3.87-4.67,6.24-5.76,2.36-1.09,4.84-1.63,7.45-1.63,2.93,0,5.58.51,7.97,1.52,2.39,1.01,4.35,2.56,5.89,4.65,1.3,1.77,2.1,3.58,2.39,5.45.29,1.87.43,4.92.43,9.15Z"/>
      <path class="cls-1" d="M484.23,110.07c-.32,2.81-1.78,5.66-4.39,8.56-4.06,4.61-9.73,6.91-17.03,6.91-6.03,0-11.34-1.94-15.95-5.82-4.61-3.88-6.91-10.2-6.91-18.94,0-8.2,2.08-14.48,6.23-18.86,4.16-4.37,9.55-6.56,16.19-6.56,3.94,0,7.49.74,10.65,2.22,3.16,1.48,5.76,3.81,7.82,7,1.85,2.81,3.06,6.07,3.61,9.78.32,2.17.45,5.3.39,9.39h-32.41c.17,4.75,1.67,8.08,4.48,9.99,1.71,1.19,3.77,1.78,6.17,1.78,2.55,0,4.62-.72,6.21-2.17.87-.78,1.64-1.87,2.3-3.26h12.64ZM471.98,95.56c-.2-3.27-1.19-5.76-2.98-7.45s-3.99-2.54-6.63-2.54c-2.87,0-5.09.9-6.67,2.69-1.58,1.8-2.57,4.23-2.98,7.3h19.25Z"/>
      <path class="cls-1" d="M533.72,110.07c-.32,2.81-1.78,5.66-4.39,8.56-4.06,4.61-9.73,6.91-17.03,6.91-6.03,0-11.34-1.94-15.95-5.82-4.61-3.88-6.91-10.2-6.91-18.94,0-8.2,2.08-14.48,6.23-18.86,4.16-4.37,9.55-6.56,16.19-6.56,3.94,0,7.49.74,10.65,2.22,3.16,1.48,5.76,3.81,7.82,7,1.85,2.81,3.06,6.07,3.61,9.78.32,2.17.45,5.3.39,9.39h-32.41c.17,4.75,1.67,8.08,4.48,9.99,1.71,1.19,3.77,1.78,6.17,1.78,2.55,0,4.62-.72,6.21-2.17.87-.78,1.64-1.87,2.3-3.26h12.64ZM521.47,95.56c-.2-3.27-1.2-5.76-2.98-7.45s-3.99-2.54-6.63-2.54c-2.87,0-5.09.9-6.67,2.69-1.58,1.8-2.57,4.23-2.98,7.3h19.25Z"/>
      <path class="cls-1" d="M582.34,81.7c3.82,4.08,5.74,10.08,5.74,17.99,0,8.34-1.88,14.7-5.63,19.07-3.75,4.37-8.58,6.56-14.49,6.56-3.77,0-6.89-.94-9.38-2.82-1.36-1.04-2.69-2.56-4-4.56v24.68h-12.25v-66h11.86v7c1.33-2.06,2.75-3.68,4.26-4.87,2.75-2.11,6.02-3.17,9.82-3.17,5.53,0,10.22,2.04,14.08,6.13ZM575.3,100.29c0-3.65-.83-6.88-2.5-9.69-1.67-2.81-4.37-4.21-8.1-4.21-4.49,0-7.58,2.13-9.25,6.39-.87,2.26-1.3,5.13-1.3,8.6,0,5.5,1.46,9.37,4.39,11.6,1.74,1.3,3.79,1.96,6.17,1.96,3.45,0,6.08-1.33,7.89-4,1.81-2.66,2.72-6.21,2.72-10.64Z"/>
      <path class="cls-1" d="M358.18,205.64h-13.82v25.11h-13.08v-64.04h31.41c4.49.09,7.94.64,10.36,1.65,2.42,1.01,4.47,2.51,6.15,4.48,1.39,1.62,2.49,3.42,3.3,5.39.81,1.97,1.22,4.21,1.22,6.73,0,3.04-.77,6.03-2.3,8.97-1.54,2.94-4.07,5.02-7.6,6.24,2.95,1.19,5.05,2.88,6.28,5.06,1.23,2.19,1.85,5.53,1.85,10.01v4.3c0,2.93.12,4.91.35,5.95.35,1.65,1.16,2.87,2.43,3.65v1.61h-14.73c-.41-1.42-.7-2.56-.87-3.43-.35-1.8-.54-3.63-.56-5.52l-.09-5.95c-.06-4.08-.8-6.81-2.24-8.17s-4.12-2.04-8.06-2.04ZM366.31,194c2.66-1.22,4-3.62,4-7.21,0-3.88-1.29-6.49-3.87-7.82-1.45-.75-3.62-1.13-6.52-1.13h-15.55v17.21h15.16c3.01,0,5.27-.35,6.78-1.04Z"/>
      <path class="cls-1" d="M437.04,202.95v27.81h-12.64v-28.81c0-2.55-.43-4.61-1.3-6.17-1.13-2.2-3.27-3.3-6.43-3.3s-5.76,1.09-7.45,3.28c-1.69,2.19-2.54,5.31-2.54,9.36v25.63h-12.34v-63.83h12.34v22.64c1.8-2.75,3.87-4.67,6.24-5.76,2.36-1.09,4.84-1.63,7.45-1.63,2.93,0,5.58.51,7.97,1.52,2.39,1.01,4.35,2.56,5.89,4.65,1.3,1.77,2.1,3.58,2.39,5.45.29,1.87.43,4.92.43,9.15Z"/>
      <path class="cls-1" d="M467.85,218.33l9.78-34.93h13.17l-16.25,46.58c-3.13,8.98-5.6,14.55-7.43,16.71s-5.47,3.24-10.95,3.24c-1.1,0-1.98,0-2.65-.02-.67-.02-1.67-.07-3-.15v-9.91l1.56.09c1.22.06,2.37.01,3.48-.13,1.1-.14,2.03-.48,2.78-1,.72-.49,1.4-1.52,2.02-3.08.62-1.56.88-2.52.76-2.87l-17.38-49.45h13.77l10.34,34.93Z"/>
      <path class="cls-1" d="M519.77,221.94v9.25l-5.87.22c-5.85.2-9.85-.81-11.99-3.04-1.39-1.42-2.09-3.61-2.09-6.56v-29.15h-6.6v-8.82h6.6v-13.21h12.25v13.21h7.69v8.82h-7.69v25.03c0,1.94.25,3.15.74,3.63s2,.72,4.52.72c.38,0,.78,0,1.2-.02s.83-.04,1.24-.07Z"/>
      <path class="cls-1" d="M570.52,202.95v27.81h-12.64v-28.81c0-2.55-.43-4.61-1.3-6.17-1.13-2.2-3.27-3.3-6.43-3.3s-5.76,1.09-7.45,3.28-2.54,5.31-2.54,9.36v25.63h-12.34v-63.83h12.34v22.64c1.8-2.75,3.87-4.67,6.24-5.76,2.36-1.09,4.84-1.63,7.45-1.63,2.93,0,5.58.51,7.97,1.52,2.39,1.01,4.35,2.56,5.89,4.65,1.3,1.77,2.1,3.58,2.39,5.45.29,1.87.43,4.92.43,9.15Z"/>
      <path class="cls-1" d="M608.67,196.43c-1.04-2.29-3.08-3.43-6.13-3.43-3.53,0-5.91,1.15-7.13,3.43-.67,1.3-1,3.25-1,5.82v28.5h-12.56v-47.27h12.04v6.91c1.54-2.46,2.98-4.21,4.34-5.26,2.4-1.85,5.52-2.78,9.34-2.78,3.62,0,6.55.8,8.78,2.39,1.79,1.48,3.16,3.38,4.08,5.69,1.62-2.78,3.63-4.82,6.04-6.13,2.55-1.3,5.39-1.96,8.52-1.96,2.08,0,4.14.41,6.17,1.22,2.03.81,3.87,2.23,5.52,4.26,1.33,1.65,2.23,3.68,2.69,6.08.29,1.59.43,3.92.43,7l-.09,29.85h-12.69v-30.15c0-1.8-.29-3.27-.87-4.43-1.1-2.2-3.13-3.3-6.08-3.3-3.42,0-5.78,1.42-7.08,4.26-.67,1.51-1,3.32-1,5.43v28.2h-12.47v-28.2c0-2.81-.29-4.85-.87-6.13Z"/>
    </g>
    <polygon class="cls-1" points="682.51 177.61 673.43 175.54 680.77 169.68 676.76 164.65 669.48 170.46 669.48 161.07 663.04 161.07 663.04 170.38 655.7 164.52 651.69 169.56 658.97 175.36 649.81 177.45 651.25 183.73 660.32 181.65 656.25 190.11 662.05 192.91 666.09 184.52 670.16 192.98 675.96 190.18 671.92 181.8 681.08 183.89 682.51 177.61"/>
  </g>
  <g>
    <path class="cls-1" d="M209.28,243.97c-8.24,0-16.17-2.49-22.94-7.18-.23-.15-.95-.67-1.13-.82-5.16-3.86-9.32-8.92-12.09-14.67-3.37-6.99-4.61-14.8-3.58-22.57.22-1.48-.68-2.93-2.14-3.41l-1.35-.51-1.06-.16c-.63,0-1.22.17-1.71.5l-.91.6-.56,1.56c-.35,2.5-.51,4.68-.51,6.68,0,7.22,1.59,14.2,4.74,20.72,2.31,4.79,5.34,9.11,9.03,12.86.31.32.44.76.36,1.22-.1.56-.47,1.04-.99,1.28-5.36,2.55-11.32,3.89-17.25,3.89s-11.85-1.34-17.31-3.97c-9.63-4.63-16.88-12.75-20.43-22.86-1.19-3.41-1.92-6.98-2.18-10.6l-.06-1.49c-.19-6.31,1.17-12.72,3.97-18.52,3.28-6.83,8.45-12.57,14.95-16.59,1.29-.81,1.83-2.41,1.29-3.82l-.89-2.46-1.46-.85-.44-.18-.71-.04c-.61,0-1.2.17-1.71.5-7.84,4.77-14.12,11.71-18.13,20.04-2.31,4.8-3.8,9.88-4.43,15.1-.12.99-1.07,1.26-1.56,1.26-.29,0-.56-.06-.81-.19-5.34-2.63-10.12-6.41-14.2-11.25-14.12-20.07-8.2-42.46,4.83-54.35l1.1-.97c4.84-4.12,10.7-7.05,16.93-8.47,2.9-.66,5.89-1,8.87-1,4.31,0,8.6.71,12.74,2.09l.39.13.62.03c1.15,0,2.2-.61,2.76-1.61l1.38-2.22-.35-1.74c-.28-.88-1.04-1.63-2-1.95-4.99-1.72-10.23-2.6-15.52-2.6-3.53,0-7.11.4-10.62,1.19-5.18,1.19-10.08,3.2-14.55,5.97-.19.02-.38.04-.55.04-1.07,0-1.61-.53-1.75-1.2-2.66-11.92.17-24.2,7.75-33.7,7.64-9.58,19.06-15.07,31.36-15.07,2.12,0,4.23.17,6.29.5l1.52.27c1.7.33,3.45.8,5.18,1.39,4.33,1.49,8.35,3.7,11.93,6.56,5.63,4.49,9.94,10.43,12.47,17.17l.6,1.6,2.37.45,3.01-.31,1.17-1.32c.55-.89.65-1.89.32-2.8-3.03-8.27-8.22-15.51-15.05-20.94-4.15-3.31-8.76-5.88-13.71-7.65-.45-.16-.76-.5-.89-.98-.15-.51-.04-1.06.28-1.46,7.67-9.55,19.06-15.03,31.25-15.03,14.39,0,27.75,7.81,34.86,20.36l.44.78c3.24,6.23,4.76,12.43,4.76,18.92,0,7.25-2,14.4-5.79,20.65-.75,1.21-.57,2.8.44,3.85l.98,1.09c.64.68,1.46,1.04,2.34,1.04h1.39l1.31-1.51c4.69-7.58,7.17-16.26,7.17-25.11,0-5.32-.87-10.54-2.58-15.53-.15-.44-.07-.95.22-1.35.29-.41.68-.62,1.14-.63,12.32,0,23.78,5.5,31.42,15.07,8.96,11.24,11.19,26.54,5.82,39.92l-.58,1.39c-2.58,5.79-6.59,10.99-11.59,14.97-5.9,4.7-12.99,7.63-20.51,8.47-1.45.15-2.61,1.28-2.79,2.75l-.4,2.64.97,1.46c.69.7,1.5,1.03,2.34,1.03,4.14-.4,7.81-1.21,11.25-2.41,5.04-1.76,9.76-4.39,14.04-7.79,4.16-3.32,7.7-7.25,10.52-11.69.35-.54.86-.65,1.23-.65.52,0,1.01.24,1.34.65,3.84,4.86,6.56,10.54,8.08,16.88,2.69,17.28-4.3,33.19-18.16,41.9-3.12,1.95-6.44,3.45-9.85,4.47-.3.1-1.14.33-1.36.39-3.31.86-6.66,1.29-10.04,1.29-3,0-6.02-.35-8.98-1.02-7.6-1.73-14.47-5.6-19.86-11.19l-.72-.76-1.56-.22c-.6,0-1.19.17-1.7.5l-2.25,1.32-.53,1.69c-.12,1.04.19,1.97.84,2.66,6.48,6.83,14.79,11.56,24.05,13.66,3.59.81,7.2,1.22,10.75,1.22,1.65,0,3.3-.08,4.9-.26h.05c.59,0,.98.2,1.26.56.33.42.44.97.32,1.5-1.38,5.87-4.05,11.41-7.9,16.47-8.53,9.42-19.46,14.45-31.03,14.45Z"/>
    <path class="cls-1" d="M69.95,116.6l-51.08,38.21c-1.83,1.37-1.83,4.12,0,5.49l51.08,38.21c2.26,1.69,5.49.07,5.49-2.75v-76.42c0-2.83-3.22-4.44-5.49-2.75ZM49.33,152.55c-2.92,0-5.28-2.37-5.28-5.28s2.37-5.28,5.28-5.28,5.28,2.37,5.28,5.28-2.36,5.28-5.28,5.28Z"/>
  </g>
</svg>