<?xml version="1.0" encoding="UTF-8"?>
<svg id="_レイヤー_1" data-name="レイヤー 1" xmlns="http://www.w3.org/2000/svg" viewBox="0 0 1080 1080">
  <defs>
    <style>
      .cls-1 {
        fill: #fff;
      }

      .cls-2 {
        fill: #004b74;
      }
    </style>
  </defs>
  <circle class="cls-2" cx="540" cy="540" r="540"/>
  <g>
    <g>
      <path class="cls-1" d="M390.88,778.32c3.16,0,5.72-.35,7.69-1.04,3.74-1.33,5.61-3.81,5.61-7.43,0-2.11-.93-3.75-2.78-4.91-1.85-1.13-4.76-2.13-8.73-3l-6.78-1.52c-6.66-1.5-11.27-3.14-13.82-4.91-4.32-2.96-6.47-7.57-6.47-13.86,0-5.74,2.08-10.5,6.26-14.29,4.17-3.79,10.3-5.69,18.38-5.69,6.75,0,12.51,1.79,17.27,5.37,4.76,3.58,7.26,8.77,7.5,15.58h-12.86c-.23-3.85-1.91-6.59-5.04-8.21-2.08-1.07-4.68-1.61-7.78-1.61-3.45,0-6.2.69-8.25,2.08-2.06,1.39-3.08,3.33-3.08,5.82,0,2.29,1.01,4,3.04,5.13,1.3.75,4.08,1.64,8.34,2.65l11.04,2.65c4.84,1.16,8.49,2.71,10.95,4.65,3.82,3.01,5.74,7.37,5.74,13.08s-2.24,10.71-6.71,14.58c-4.48,3.87-10.8,5.8-18.97,5.8s-14.9-1.9-19.68-5.71c-4.78-3.81-7.17-9.04-7.17-15.71h12.77c.41,2.93,1.2,5.11,2.39,6.56,2.17,2.64,5.89,3.95,11.17,3.95Z"/>
      <path class="cls-1" d="M468.78,759.76v27.81h-12.64v-28.81c0-2.55-.43-4.61-1.3-6.17-1.13-2.2-3.27-3.3-6.43-3.3s-5.76,1.09-7.45,3.28-2.54,5.31-2.54,9.36v25.63h-12.34v-63.83h12.34v22.64c1.8-2.75,3.87-4.67,6.24-5.76,2.36-1.09,4.84-1.63,7.45-1.63,2.93,0,5.58.51,7.97,1.52,2.39,1.01,4.35,2.56,5.89,4.65,1.3,1.77,2.1,3.58,2.39,5.45.29,1.87.43,4.92.43,9.15Z"/>
      <path class="cls-1" d="M520.88,773.67c-.32,2.81-1.78,5.66-4.39,8.56-4.06,4.61-9.73,6.91-17.03,6.91-6.03,0-11.34-1.94-15.95-5.82-4.61-3.88-6.91-10.2-6.91-18.94,0-8.2,2.08-14.48,6.24-18.86,4.16-4.37,9.55-6.56,16.18-6.56,3.94,0,7.49.74,10.65,2.22,3.16,1.48,5.76,3.81,7.82,7,1.85,2.81,3.06,6.07,3.61,9.78.32,2.17.45,5.3.39,9.39h-32.41c.17,4.75,1.67,8.08,4.48,9.99,1.71,1.19,3.77,1.78,6.17,1.78,2.55,0,4.62-.72,6.21-2.17.87-.78,1.64-1.87,2.3-3.26h12.64ZM508.62,759.15c-.2-3.27-1.2-5.76-2.98-7.45s-3.99-2.54-6.63-2.54c-2.87,0-5.09.9-6.67,2.69s-2.57,4.23-2.98,7.3h19.25Z"/>
      <path class="cls-1" d="M570.37,773.67c-.32,2.81-1.78,5.66-4.39,8.56-4.06,4.61-9.73,6.91-17.03,6.91-6.03,0-11.34-1.94-15.95-5.82-4.61-3.88-6.91-10.2-6.91-18.94,0-8.2,2.08-14.48,6.24-18.86,4.16-4.37,9.55-6.56,16.18-6.56,3.94,0,7.49.74,10.65,2.22,3.16,1.48,5.76,3.81,7.82,7,1.85,2.81,3.06,6.07,3.61,9.78.32,2.17.45,5.3.39,9.39h-32.41c.17,4.75,1.67,8.08,4.48,9.99,1.71,1.19,3.77,1.78,6.17,1.78,2.55,0,4.62-.72,6.21-2.17.87-.78,1.64-1.87,2.3-3.26h12.64ZM558.11,759.15c-.2-3.27-1.2-5.76-2.98-7.45s-3.99-2.54-6.63-2.54c-2.87,0-5.09.9-6.67,2.69s-2.57,4.23-2.98,7.3h19.25Z"/>
      <path class="cls-1" d="M618.99,745.29c3.82,4.08,5.74,10.08,5.74,17.99,0,8.34-1.88,14.7-5.63,19.07-3.75,4.37-8.58,6.56-14.49,6.56-3.77,0-6.89-.94-9.38-2.82-1.36-1.04-2.69-2.56-4-4.56v24.68h-12.25v-66h11.86v7c1.33-2.06,2.75-3.68,4.26-4.87,2.75-2.11,6.02-3.17,9.82-3.17,5.53,0,10.22,2.04,14.08,6.13ZM611.95,763.89c0-3.65-.83-6.88-2.5-9.69-1.67-2.81-4.37-4.21-8.1-4.21-4.49,0-7.58,2.13-9.25,6.39-.87,2.26-1.3,5.13-1.3,8.6,0,5.5,1.46,9.37,4.39,11.6,1.74,1.3,3.79,1.96,6.17,1.96,3.45,0,6.08-1.33,7.89-4,1.81-2.66,2.72-6.21,2.72-10.64Z"/>
      <path class="cls-1" d="M394.83,869.24h-13.82v25.11h-13.08v-64.04h31.41c4.49.09,7.94.64,10.36,1.65,2.42,1.01,4.47,2.51,6.15,4.48,1.39,1.62,2.49,3.42,3.3,5.39.81,1.97,1.22,4.21,1.22,6.73,0,3.04-.77,6.03-2.3,8.97-1.54,2.94-4.07,5.02-7.6,6.24,2.95,1.19,5.05,2.88,6.28,5.06,1.23,2.19,1.85,5.53,1.85,10.01v4.3c0,2.93.12,4.91.35,5.95.35,1.65,1.16,2.87,2.43,3.65v1.61h-14.73c-.41-1.42-.7-2.56-.87-3.43-.35-1.8-.54-3.63-.57-5.52l-.09-5.95c-.06-4.08-.8-6.81-2.24-8.17s-4.12-2.04-8.06-2.04ZM402.96,857.59c2.66-1.22,4-3.62,4-7.21,0-3.88-1.29-6.49-3.87-7.82-1.45-.75-3.62-1.13-6.52-1.13h-15.55v17.21h15.16c3.01,0,5.27-.35,6.78-1.04Z"/>
      <path class="cls-1" d="M473.69,866.54v27.81h-12.64v-28.81c0-2.55-.43-4.61-1.3-6.17-1.13-2.2-3.27-3.3-6.43-3.3s-5.76,1.09-7.45,3.28-2.54,5.31-2.54,9.36v25.63h-12.34v-63.83h12.34v22.64c1.8-2.75,3.87-4.67,6.24-5.76,2.36-1.09,4.84-1.63,7.45-1.63,2.93,0,5.58.51,7.97,1.52,2.39,1.01,4.35,2.56,5.89,4.65,1.3,1.77,2.1,3.58,2.39,5.45.29,1.87.43,4.92.43,9.15Z"/>
      <path class="cls-1" d="M504.5,881.92l9.78-34.93h13.17l-16.25,46.58c-3.13,8.98-5.6,14.55-7.43,16.71s-5.47,3.24-10.95,3.24c-1.1,0-1.98,0-2.65-.02-.67-.02-1.67-.07-3-.15v-9.91l1.56.09c1.22.06,2.38.01,3.48-.13s2.03-.48,2.78-1c.72-.49,1.4-1.52,2.02-3.08.62-1.56.88-2.52.76-2.87l-17.38-49.45h13.77l10.34,34.93Z"/>
      <path class="cls-1" d="M556.42,885.53v9.25l-5.87.22c-5.85.2-9.85-.81-11.99-3.04-1.39-1.42-2.09-3.61-2.09-6.56v-29.15h-6.6v-8.82h6.6v-13.21h12.25v13.21h7.69v8.82h-7.69v25.03c0,1.94.25,3.15.74,3.63s2,.72,4.52.72c.38,0,.78,0,1.2-.02s.83-.04,1.24-.07Z"/>
      <path class="cls-1" d="M607.17,866.54v27.81h-12.64v-28.81c0-2.55-.43-4.61-1.3-6.17-1.13-2.2-3.27-3.3-6.43-3.3s-5.76,1.09-7.45,3.28-2.54,5.31-2.54,9.36v25.63h-12.34v-63.83h12.34v22.64c1.8-2.75,3.87-4.67,6.24-5.76,2.36-1.09,4.84-1.63,7.45-1.63,2.93,0,5.58.51,7.97,1.52,2.39,1.01,4.35,2.56,5.89,4.65,1.3,1.77,2.1,3.58,2.39,5.45.29,1.87.43,4.92.43,9.15Z"/>
      <path class="cls-1" d="M645.32,860.03c-1.04-2.29-3.08-3.43-6.13-3.43-3.53,0-5.91,1.15-7.13,3.43-.67,1.3-1,3.25-1,5.82v28.5h-12.56v-47.27h12.04v6.91c1.54-2.46,2.98-4.21,4.34-5.26,2.4-1.85,5.52-2.78,9.34-2.78,3.62,0,6.55.8,8.78,2.39,1.79,1.48,3.16,3.38,4.08,5.69,1.62-2.78,3.63-4.82,6.04-6.13,2.55-1.3,5.39-1.96,8.52-1.96,2.08,0,4.14.41,6.17,1.22,2.03.81,3.87,2.23,5.52,4.26,1.33,1.65,2.23,3.68,2.69,6.08.29,1.59.43,3.92.43,7l-.09,29.85h-12.69v-30.15c0-1.8-.29-3.27-.87-4.43-1.1-2.2-3.13-3.3-6.08-3.3-3.42,0-5.78,1.42-7.08,4.26-.67,1.51-1,3.32-1,5.43v28.2h-12.47v-28.2c0-2.81-.29-4.85-.87-6.13Z"/>
    </g>
    <polygon class="cls-1" points="719.15 841.21 710.07 839.13 717.41 833.28 713.4 828.25 706.12 834.05 706.12 824.66 699.68 824.66 699.68 833.97 692.34 828.12 688.33 833.15 695.61 838.96 686.45 841.05 687.89 847.32 696.96 845.25 692.89 853.71 698.69 856.5 702.73 848.12 706.8 856.57 712.6 853.78 708.56 845.39 717.72 847.48 719.15 841.21"/>
  </g>
  <path class="cls-1" d="M684.89,663.1c-20,0-39.23-6.03-55.66-17.42-.55-.37-2.3-1.62-2.75-1.99-12.52-9.37-22.62-21.64-29.33-35.6-8.18-16.97-11.19-35.91-8.69-54.76.53-3.59-1.66-7.11-5.2-8.28l-3.28-1.25-2.58-.39c-1.52,0-2.97.41-4.16,1.21l-2.21,1.47-1.35,3.79c-.84,6.07-1.23,11.35-1.23,16.21,0,17.52,3.87,34.45,11.5,50.29,5.6,11.62,12.97,22.11,21.91,31.21.76.78,1.07,1.84.88,2.97-.25,1.37-1.13,2.52-2.4,3.1-13,6.19-27.47,9.45-41.85,9.45s-28.75-3.24-42-9.63c-23.38-11.23-40.97-30.93-49.56-55.46-2.89-8.28-4.67-16.93-5.29-25.72l-.16-3.61c-.47-15.31,2.85-30.85,9.65-44.93,7.97-16.58,20.51-30.5,36.29-40.27,3.12-1.97,4.43-5.86,3.12-9.28l-2.17-5.98-3.53-2.05-1.07-.43-1.72-.1c-1.48,0-2.91.41-4.14,1.21-19.02,11.58-34.27,28.41-44,48.63-5.6,11.64-9.22,23.98-10.74,36.63-.29,2.4-2.6,3.05-3.79,3.05-.7,0-1.35-.16-1.97-.45-12.97-6.39-24.57-15.56-34.45-27.3-34.27-48.7-19.9-103.03,11.72-131.89l2.68-2.34c11.75-10,25.97-17.11,41.09-20.56,7.05-1.6,14.29-2.42,21.52-2.42,10.47,0,20.86,1.72,30.91,5.08l.94.31,1.5.08c2.79,0,5.35-1.48,6.7-3.91l3.34-5.39-.84-4.22c-.68-2.13-2.52-3.96-4.84-4.73-12.11-4.18-24.82-6.31-37.67-6.31-8.57,0-17.24.98-25.78,2.89-12.58,2.89-24.45,7.77-35.31,14.49-.47.06-.92.1-1.33.1-2.6,0-3.91-1.29-4.26-2.91-6.45-28.92.41-58.72,18.81-81.78,18.53-23.24,46.26-36.58,76.1-36.58,5.14,0,10.27.41,15.27,1.21l3.69.66c4.12.8,8.38,1.93,12.58,3.38,10.51,3.61,20.27,8.98,28.96,15.92,13.67,10.9,24.12,25.31,30.25,41.67l1.47,3.89,5.74,1.09,7.3-.74,2.85-3.2c1.33-2.17,1.58-4.59.78-6.8-7.34-20.08-19.96-37.63-36.52-50.81-10.08-8.03-21.26-14.28-33.26-18.57-1.09-.39-1.85-1.21-2.17-2.38-.37-1.25-.1-2.58.68-3.55,18.61-23.18,46.24-36.48,75.83-36.48,34.92,0,67.33,18.94,84.6,49.41l1.07,1.89c7.87,15.12,11.54,30.15,11.54,45.91,0,17.59-4.86,34.94-14.04,50.11-1.82,2.93-1.39,6.8,1.07,9.33l2.38,2.64c1.56,1.66,3.55,2.52,5.68,2.52h3.38l3.18-3.67c11.38-18.4,17.4-39.47,17.4-60.93,0-12.91-2.11-25.58-6.25-37.69-.37-1.07-.18-2.3.53-3.28.7-1,1.66-1.5,2.77-1.52,29.9,0,57.71,13.34,76.24,36.58,21.74,27.28,27.16,64.4,14.12,96.88l-1.41,3.38c-6.27,14.06-15.99,26.66-28.12,36.32-14.31,11.4-31.52,18.51-49.76,20.54-3.52.35-6.33,3.1-6.78,6.68l-.98,6.41,2.34,3.55c1.68,1.7,3.63,2.5,5.68,2.5,10.04-.98,18.96-2.93,27.3-5.86,12.23-4.28,23.69-10.64,34.08-18.9,10.1-8.05,18.69-17.59,25.52-28.37.84-1.31,2.09-1.58,2.99-1.58,1.27,0,2.44.59,3.24,1.58,9.31,11.8,15.91,25.58,19.61,40.97,6.52,41.93-10.43,80.54-44.07,101.68-7.58,4.73-15.62,8.38-23.9,10.86-.72.23-2.77.8-3.3.94-8.03,2.09-16.17,3.12-24.37,3.12-7.28,0-14.61-.84-21.8-2.48-18.45-4.2-35.11-13.59-48.2-27.16l-1.76-1.84-3.79-.53c-1.47,0-2.89.41-4.12,1.21l-5.47,3.2-1.29,4.1c-.29,2.52.47,4.78,2.03,6.44,15.72,16.58,35.89,28.04,58.35,33.16,8.71,1.97,17.48,2.97,26.09,2.97,4,0,8.01-.2,11.89-.63h.12c1.43,0,2.38.49,3.06,1.35.8,1.02,1.07,2.36.78,3.65-3.36,14.24-9.82,27.69-19.18,39.97-20.7,22.87-47.22,35.07-75.3,35.07Z"/>
  <path class="cls-1" d="M346.81,354.01l-123.96,92.73c-4.45,3.33-4.45,10,0,13.33l123.96,92.73c5.49,4.1,13.31.18,13.31-6.67v-185.45c0-6.86-7.82-10.77-13.31-6.67ZM296.78,441.24c-7.08,0-12.82-5.74-12.82-12.81s5.74-12.82,12.82-12.82,12.81,5.74,12.81,12.82-5.73,12.81-12.81,12.81Z"/>
</svg>